<?xml version="1.0" encoding="utf-8"?>
<!-- Generator: Adobe Illustrator 27.6.1, SVG Export Plug-In . SVG Version: 6.00 Build 0)  -->
<svg version="1.1" id="Layer_1" xmlns="http://www.w3.org/2000/svg" xmlns:xlink="http://www.w3.org/1999/xlink" x="0px" y="0px"
	 viewBox="0 0 603.2 605.3" style="enable-background:new 0 0 603.2 605.3;" xml:space="preserve">
<style type="text/css">
	.st0{fill:#FFFFFF;}
	.st1{fill:#FFF200;}
	.st2{fill:#FFFFFF;stroke:#231F20;stroke-width:0.2545;stroke-linecap:round;stroke-linejoin:round;}
	.st3{stroke:#231F20;stroke-width:6.058460e-02;stroke-linecap:round;stroke-linejoin:round;}
	.st4{fill:#231F20;stroke:#231F20;stroke-width:8.481844e-02;stroke-linecap:round;stroke-linejoin:round;}
	.st5{fill:#231F20;stroke:#231F20;stroke-width:6.058460e-02;stroke-linecap:round;stroke-linejoin:round;}
	.st6{fill:#FFFFFF;stroke:#231F20;stroke-width:0.2787;stroke-linecap:round;stroke-linejoin:round;}
	.st7{fill:#FFFFFF;stroke:#231F20;stroke-width:0.2908;stroke-linecap:round;stroke-linejoin:round;}
	.st8{stroke:#231F20;stroke-width:7.270151e-02;stroke-linecap:round;stroke-linejoin:round;}
	.st9{fill:#231F20;stroke:#231F20;stroke-width:9.693535e-02;stroke-linecap:round;stroke-linejoin:round;}
	.st10{fill:#231F20;stroke:#231F20;stroke-width:7.270151e-02;stroke-linecap:round;stroke-linejoin:round;}
	.st11{fill:#FFFFFF;stroke:#231F20;stroke-width:0.315;stroke-linecap:round;stroke-linejoin:round;}
	.st12{stroke:#231F20;stroke-width:8.481844e-02;stroke-linecap:round;stroke-linejoin:round;}
	.st13{fill:#231F20;stroke:#231F20;stroke-width:0.1091;stroke-linecap:round;stroke-linejoin:round;}
	.st14{fill:#FFFFFF;stroke:#231F20;stroke-width:0.3514;stroke-linecap:round;stroke-linejoin:round;}
	.st15{fill:#231F20;stroke:#231F20;stroke-width:0.1212;stroke-linecap:round;stroke-linejoin:round;}
	.st16{fill:#FFFFFF;stroke:#231F20;stroke-width:0.3877;stroke-linecap:round;stroke-linejoin:round;}
	.st17{fill:#FFFFFF;stroke:#231F20;stroke-width:0.3999;stroke-linecap:round;stroke-linejoin:round;}
	.st18{stroke:#231F20;stroke-width:9.693535e-02;stroke-linecap:round;stroke-linejoin:round;}
	.st19{fill:#231F20;stroke:#231F20;stroke-width:0.1333;stroke-linecap:round;stroke-linejoin:round;}
	.st20{fill:#FFFFFF;stroke:#231F20;stroke-width:0.4362;stroke-linecap:round;stroke-linejoin:round;}
	.st21{stroke:#231F20;stroke-width:0.1091;stroke-linecap:round;stroke-linejoin:round;}
	.st22{fill:#231F20;stroke:#231F20;stroke-width:0.1575;stroke-linecap:round;stroke-linejoin:round;}
	.st23{fill:#FFFFFF;stroke:#231F20;stroke-width:0.4847;stroke-linecap:round;stroke-linejoin:round;}
	.st24{stroke:#231F20;stroke-width:0.1212;stroke-linecap:round;stroke-linejoin:round;}
	.st25{fill:#231F20;stroke:#231F20;stroke-width:0.1696;stroke-linecap:round;stroke-linejoin:round;}
	.st26{fill:#FFFFFF;stroke:#231F20;stroke-width:0.5331;stroke-linecap:round;stroke-linejoin:round;}
	.st27{fill:#FFFFFF;stroke:#231F20;stroke-width:0.5453;stroke-linecap:round;stroke-linejoin:round;}
	.st28{stroke:#231F20;stroke-width:0.1333;stroke-linecap:round;stroke-linejoin:round;}
	.st29{fill:#231F20;stroke:#231F20;stroke-width:0.1939;stroke-linecap:round;stroke-linejoin:round;}
	.st30{fill:#FFFFFF;stroke:#231F20;stroke-width:0.5937;stroke-linecap:round;stroke-linejoin:round;}
	.st31{fill:#FFFFFF;stroke:#231F20;stroke-width:0.6058;stroke-linecap:round;stroke-linejoin:round;}
	.st32{stroke:#231F20;stroke-width:0.1454;stroke-linecap:round;stroke-linejoin:round;}
	.st33{fill:#231F20;stroke:#231F20;stroke-width:0.206;stroke-linecap:round;stroke-linejoin:round;}
	.st34{fill:#231F20;stroke:#231F20;stroke-width:0.1454;stroke-linecap:round;stroke-linejoin:round;}
	.st35{fill:none;stroke:#007647;stroke-width:7.5125;stroke-linecap:round;stroke-linejoin:round;}
	.st36{fill:none;stroke:#FFF200;stroke-width:1.8054;}
	.st37{fill:#007647;}
	.st38{fill:#231F20;}
</style>
<path class="st0" d="M599.4,302.2c0,164.4-132.9,297.6-296.8,297.6S5.9,466.5,5.9,302.2S138.7,4.5,302.6,4.5
	S599.4,137.8,599.4,302.2z"/>
<path class="st1" d="M149.5,94.2l-89.4,63.4C34,201.3,20.3,251.3,20.4,302.2c0,17.2,1.5,34.4,4.6,51.3l331.8-6L149.5,94.2z"/>
<path class="st2" d="M406.1,121.9c2-5.8,4.6-11.2,7.9-16.3c-0.3-2.7-0.2-5.4,0.2-8.1c-10.2,9.2-14.3,20.2-14.9,33.2
	C401.5,127.5,403.8,124.8,406.1,121.9z M437.9,158.7c1.9-4.5,2.9-9.2,3-14.1c-4.2-3-9.6-7.1-13.3-12.3c-4.6,0.8-9.2,1.8-13.6,2.6
	c-2.1,5.1-3.8,10.4-3.9,15.9c3.4,5,7.9,9.2,13.2,12.1C428.8,162.3,433.2,160.3,437.9,158.7L437.9,158.7z M440.8,144.6
	c5.7-2.1,11.2-4.9,16.2-8.4c4.2,2.5,8.5,4.6,13,6.4c-0.1,5.3-1.1,10.5-2.9,15.4c-3.7,4.1-8.7,7-14.2,8.2c-5.7-0.8-11-3.5-15-7.5
	C439.7,153.9,440.9,149.7,440.8,144.6z M476,115.1c2.7,5.2,4.1,11.1,4,17c1.9,2.4,2.7,5.7,3.7,9.5c3.9-15.4-1.5-29.9-7.8-35.9
	C476.8,108.8,476.8,112.1,476,115.1L476,115.1z M454.3,118.2c2.8-2.6,5.4-5.4,7.8-8.4c5.8,0.9,9.6,1.9,13.9,5.3
	c2.8,5.2,4.2,11.1,4,17c-2.4,3.9-5.1,7.9-10,10.5c-4.5-1.7-8.9-3.9-13-6.4C456.6,130.2,455.7,124.1,454.3,118.2L454.3,118.2z
	 M431.8,89.3c3.3,1.1,6.6,2.5,9.6,4.2c4.6,0.1,9.2,0.8,13.5,2.2c2.9-0.6,5.9-0.7,8.8-0.2C454.4,89.2,442.8,87,431.8,89.3z
	 M435.7,115.5c-2.6-3.8-4.7-7.8-6.3-12.1c3.2-4.7,7.1-8.4,12.1-9.9c4.5,0.1,9,0.9,13.3,2.2c3,3.6,4.8,8.4,7.1,14.1
	c-2.3,3-4.9,5.8-7.8,8.4C448.2,116.5,441.9,115.6,435.7,115.5L435.7,115.5z M427.4,132.3c1.5-6.7,5.1-12.3,8.3-16.8
	c-2.6-3.8-4.7-7.8-6.3-12.1c-5.2-0.2-10.4,0.5-15.4,2.2c-3.3,5.1-6,10.6-8,16.3c1.3,4.9,4,9.4,7.8,12.9
	C418.4,134.1,422.9,133.1,427.4,132.3L427.4,132.3z"/>
<path class="st2" d="M453,166.2c5.5-1.2,10.4-4,14.2-8.2c2.4,0,5.1,0.1,7.5-0.9c-6.8,7.4-16.1,12.3-28,14.1
	C449.1,170,451.2,168.3,453,166.2z M410,150.7c3.4,5,7.9,9.2,13.2,12.1c0.5,2,1.3,3.9,2.2,5.8c-9.5-3.4-19.6-15.5-23-23.2
	C404.5,147.7,407.1,149.5,410,150.7L410,150.7z"/>
<path class="st3" d="M402.4,145.5c2.1,2.3,4.7,4.1,7.6,5.3c0.1-5.9,2-11,3.9-15.9c-3.7-3.5-6.4-8-7.8-12.9c-2.4,2.8-4.7,5.7-6.8,8.8
	C398.4,135.8,399.4,141.1,402.4,145.5L402.4,145.5z M470,142.6c4.5-2.4,7.3-5.9,10-10.5c2,2.4,2.9,6.3,3.7,9.4
	c-1,6.2-4.3,11.8-9.1,15.7c-2.1,1-4.7,0.9-7.5,0.9C468.9,153.1,469.9,147.9,470,142.6L470,142.6z M455,95.7c3,3.6,5.1,8.9,7.1,14.1
	c4.8,0.8,9.1,1.5,13.9,5.3c0.8-3.1,0.8-6.4,0-9.5c-2.7-4.7-7.1-8.3-12.2-10.2C460.8,95.1,457.9,95.1,455,95.7L455,95.7z
	 M414.1,105.6c5-1.6,10.2-2.3,15.4-2.2c3.3-5.2,7.8-8.7,12-9.9c-3.1-1.7-6.3-3.1-9.7-4.2c-6.6,0.6-12.9,3.5-17.6,8.2
	C413.8,100.2,413.8,102.9,414.1,105.6z M427.4,132.3c1.6-6.6,4.7-11.8,8.3-16.8c6.3,0,12.5,0.9,18.6,2.7c1.4,5.9,2.3,11.9,2.7,18
	c-5,3.5-10.5,6.3-16.2,8.4C435.9,141,430.9,137.1,427.4,132.3L427.4,132.3z"/>
<path class="st4" d="M438,158.7c4.1,4,9.3,6.6,15,7.5c-1.7,2.1-3.9,3.8-6.3,5.1c-7.2,1.3-14.6,0.4-21.3-2.6
	c-0.9-1.8-1.7-3.8-2.2-5.7C428.2,162.4,433.4,160.3,438,158.7z"/>
<path class="st5" d="M402.4,145.5c2.1,2.3,4.7,4.1,7.6,5.3c-6.1-7.3-7.4-3.3-10.7-20C398.4,135.8,399.4,141.1,402.4,145.5
	L402.4,145.5z"/>
<path class="st6" d="M385.2,114.8c2.2-6.4,5.2-12.5,8.8-18.2c-0.3-3-0.2-6,0.2-9c-11.3,10.3-15.9,22.4-16.5,36.9
	C380.1,121.1,382.6,117.9,385.2,114.8L385.2,114.8z M420.5,155.6c2.1-4.9,3.2-10.3,3.3-15.6c-4.6-3.4-10.7-7.9-14.9-13.7
	c-5.1,0.9-10.3,2-15.1,2.9c-2.3,5.7-4.2,11.6-4.3,17.6c3.8,5.6,8.8,10.2,14.7,13.5C410.4,159.6,415.3,157.4,420.5,155.6L420.5,155.6
	z M423.8,139.9c6.4-2.3,12.4-5.4,18-9.3c4.6,2.8,9.5,5.1,14.5,7.1c-0.1,5.9-1.2,11.6-3.2,17.1c-4.2,4.6-9.7,7.8-15.8,9.1
	c-6.7-0.9-12-4-16.7-8.3C422.5,150.3,423.9,145.6,423.8,139.9L423.8,139.9z M462.9,107.1c3.1,5.8,4.6,12.3,4.5,18.8
	c2.1,2.7,3,6.3,4.1,10.5c4.3-17.1-1.7-33.3-8.6-39.9C463.8,100.1,463.8,103.7,462.9,107.1L462.9,107.1z M438.8,110.6
	c3.1-2.9,6-6,8.7-9.3c6.5,1,10.6,2.2,15.4,5.9c3.1,5.8,4.6,12.2,4.5,18.8c-2.6,4.4-5.7,8.8-11.1,11.7c-5.1-1.9-9.9-4.3-14.5-7.1
	C441.3,123.8,440.3,117.1,438.8,110.6L438.8,110.6z M413.8,78.5c3.7,1.2,7.3,2.8,10.7,4.7c5.1,0.1,10.2,0.9,15,2.4
	c3.2-0.6,6.5-0.7,9.8-0.3C439.5,78.4,426.3,75.9,413.8,78.5L413.8,78.5z M418.2,107.6c-2.8-4.2-5.2-8.7-7-13.4
	c3.5-5.2,7.9-9.4,13.5-11c5.5,0,10.1,1.2,14.8,2.4c3.3,4,5.4,9.4,7.9,15.7c-2.6,3.3-5.5,6.5-8.7,9.3
	C432.1,108.7,425.1,107.7,418.2,107.6L418.2,107.6z M408.9,126.2c1.6-7.4,5.7-13.7,9.2-18.7c-2.8-4.2-5.2-8.7-7-13.4
	c-5.8-0.2-11.6,0.6-17.1,2.4c-3.7,5.7-6.7,11.8-8.9,18.2c1.5,5.5,4.5,10.5,8.7,14.3C398.9,128.2,403.9,127.2,408.9,126.2
	L408.9,126.2z"/>
<path class="st7" d="M437.3,163.9c6.1-1.3,11.6-4.5,15.8-9.1c2.7,0,5.7,0.2,8.3-1c-7.6,8.2-17.9,13.7-31.1,15.8
	C433,168.2,435.4,166.3,437.3,163.9L437.3,163.9z M389.5,146.8c3.9,6.1,9.4,10.3,14.7,13.5c0.6,2.2,1.4,4.4,2.4,6.4
	c-10.6-3.8-21.8-17.2-25.6-25.7C383.4,143.5,386.3,145.5,389.5,146.8L389.5,146.8z"/>
<path class="st8" d="M381.1,140.9c2.4,2.5,5.3,4.5,8.5,5.9c0.1-6.6,2.2-12.2,4.3-17.6c-4.1-3.9-7.1-8.9-8.7-14.4
	c-2.7,3.1-5.2,6.3-7.5,9.7C376.6,130.2,377.8,136.1,381.1,140.9L381.1,140.9z M456.2,137.7c5-2.7,8-6.6,11.1-11.7
	c2.2,2.7,3.2,7,4.1,10.5c-1.2,6.8-4.8,13-10.2,17.4c-2.4,1.1-5.2,1-8.3,1C455,149.3,456.1,143.5,456.2,137.7L456.2,137.7z
	 M439.5,85.6c3.3,4,5.7,9.9,7.9,15.7c5.4,0.9,10.1,1.6,15.4,5.9c0.9-3.5,0.9-7.1,0-10.5c-3.1-5.2-7.9-9.2-13.6-11.3
	C446,84.9,442.7,85,439.5,85.6L439.5,85.6z M394.1,96.6c5.5-1.8,11.3-2.6,17.1-2.4c3.7-5.8,8.7-9.7,13.3-11c-3.4-1.9-7-3.5-10.8-4.7
	c-7.4,0.7-14.3,3.9-19.5,9.1C393.8,90.6,393.8,93.6,394.1,96.6L394.1,96.6z M408.9,126.3c1.8-7.4,5.2-13.1,9.2-18.7
	c7,0,13.9,1,20.6,2.9c1.6,6.6,2.6,13.3,3,20c-5.6,3.9-11.6,7-18,9.3C418.4,136,412.8,131.6,408.9,126.3L408.9,126.3z"/>
<path class="st9" d="M420.6,155.6c4.5,4.5,10.4,7.4,16.7,8.3c-1.9,2.3-4.3,4.2-7,5.6c-8,1.5-16.3,0.5-23.7-2.9c-1-2-1.8-4.2-2.4-6.4
	C409.8,159.8,415.6,157.4,420.6,155.6L420.6,155.6z"/>
<path class="st10" d="M381.1,140.9c2.4,2.5,5.3,4.5,8.5,5.9c-6.7-8.2-8.2-3.6-11.9-22.2C376.6,130.2,377.9,136.1,381.1,140.9
	L381.1,140.9z"/>
<path class="st11" d="M361.1,109.2c2.4-7.1,5.7-13.9,9.8-20.2c-0.3-3.3-0.3-6.7,0.2-10c-12.6,11.4-17.7,24.9-18.4,41
	C355.3,116.1,358.2,112.8,361.1,109.2z M400.3,154.6c2.3-5.5,3.6-11.4,3.6-17.4c-5.1-3.8-11.9-8.8-16.5-15.2
	c-5.7,1-11.4,2.2-16.7,3.2c-2.5,6.3-4.7,12.9-4.8,19.6c4,6.4,10,11.3,16.3,15C389,159,394.4,156.6,400.3,154.6L400.3,154.6z
	 M403.9,137.2c7.1-2.6,13.8-6.1,20-10.3c5.1,3.1,10.5,5.7,16.1,7.9c-0.2,6.5-1.4,12.9-3.6,19c-4.7,4.8-10,8.5-17.5,10.1
	c-7.4-1-13.3-4.4-18.5-9.3C402.5,148.7,404,143.5,403.9,137.2L403.9,137.2z M447.4,100.8c3.4,6.4,5.1,13.6,5,20.9
	c2.4,3,3.4,7.1,4.6,11.7c4.8-19-1.9-37-9.6-44.3C448.3,92.9,448.3,97,447.4,100.8L447.4,100.8z M420.6,104.6
	c3.5-3.2,6.7-6.6,9.6-10.3c7.3,1.1,11.8,2.4,17.2,6.5c3.2,6.2,4.8,12.1,5,20.9c-2.9,4.8-6.3,9.8-12.3,13c-5.6-2.1-11-4.8-16.1-7.9
	C423.4,119.3,422.3,111.9,420.6,104.6L420.6,104.6z M392.9,69c4.1,1.3,8.1,3.1,11.9,5.2c5.7,0.1,11.3,1,16.7,2.7
	c3.6-0.7,7.3-0.8,10.9-0.3C421.4,69,406.8,66.1,392.9,69L392.9,69z M397.7,101.3c-3.2-4.7-5.8-9.7-7.7-14.9
	c3.9-5.8,8.7-10.4,15-12.3c6.1,0,11.2,1.3,16.5,2.7c3.6,4.5,6.1,10.4,8.8,17.4c-2.9,3.7-6.1,7.2-9.6,10.3
	C413.2,102.5,405.5,101.4,397.7,101.3L397.7,101.3z M387.4,122c1.8-8.3,6.3-15.2,10.2-20.7c-3.2-4.7-5.8-9.7-7.7-14.9
	c-6.4-0.2-12.9,0.7-19,2.7c-4.1,6.3-7.4,13.1-9.9,20.2c1.6,6.1,5,11.6,9.6,15.9C376.2,124.2,381.8,123,387.4,122z"/>
<path class="st11" d="M418.9,163.8c6.7-1.5,12.8-5,17.5-10.1c3,0,6.4,0.2,9.3-1.1c-8.4,9.1-19.9,15.2-34.5,17.4
	C414.1,168.5,416.7,166.4,418.9,163.8z M365.8,144.8c4.3,6.8,10.4,11.4,16.3,15c0.7,2.5,1.6,4.9,2.8,7.1
	c-11.7-4.2-24.2-19.2-28.4-28.6C359.1,141.1,362.3,143.3,365.8,144.8z"/>
<path class="st12" d="M356.5,138.3c2.6,2.8,5.8,5,9.4,6.5c0.1-7.3,2.4-13.6,4.8-19.6c-4.6-4.3-7.9-9.8-9.6-15.9
	c-3,3.5-5.8,7.1-8.4,10.8C351.5,126.4,352.9,132.9,356.5,138.3L356.5,138.3z M440,134.7c5.6-3,8.9-7.3,12.3-13
	c2.4,3,3.6,7.8,4.6,11.7c-1.3,7.6-5.3,14.5-11.3,19.4c-2.6,1.2-5.8,1.1-9.2,1.1C438.6,147.7,439.9,141.2,440,134.7L440,134.7z
	 M421.4,76.8c3.6,4.5,6.3,10.9,8.8,17.4c6.1,1,11.2,1.8,17.1,6.5c1-3.8,1-7.9,0-11.7c-3.9-6.3-9-10.5-15.1-12.5
	C428.6,76,425,76.1,421.4,76.8z M370.9,89c6.1-2,12.6-2.9,19-2.7c4.1-6.4,9.7-10.8,14.9-12.2c-3.8-2.1-7.8-3.9-12-5.2
	c-8.2,0.7-15.9,4.3-21.7,10.1C370.6,82.3,370.5,85.7,370.9,89z M387.4,122c2-8.2,5.8-14.5,10.2-20.7c7.8,0,15.5,1.2,22.9,3.3
	c1.7,7.3,2.9,14.8,3.4,22.2c-6.2,4.3-12.9,7.8-20,10.3C398,132.9,391.7,128,387.4,122L387.4,122z"/>
<path class="st13" d="M400.4,154.6c5,5,11.5,8.2,18.6,9.2c-2.2,2.6-4.8,4.7-7.7,6.2c-8.9,1.6-18.1,0.5-26.3-3.2
	c-1.2-2.3-2.1-4.6-2.7-7.1C388.3,159.3,394.7,156.6,400.4,154.6L400.4,154.6z"/>
<path class="st4" d="M356.5,138.3c2.6,2.8,5.8,5,9.4,6.5c-7.5-9.1-9.1-4.1-13.2-24.7C351.5,126.4,352.9,132.9,356.5,138.3
	L356.5,138.3z"/>
<path class="st14" d="M329.1,105.6c2.7-7.9,6.4-15.4,10.9-22.4c-0.4-3.7-0.3-7.5,0.2-11.1c-13.9,12.7-19.6,27.7-20.4,45.6
	C322.7,113.2,325.9,109.5,329.1,105.6L329.1,105.6z M372.7,156c2.6-6.4,4.2-13.4,4-19.3c-5.7-4.2-13.2-9.8-18.3-17
	c-6.3,1.1-12.7,2.4-18.6,3.5c-2.8,7.1-5.2,14.3-5.4,21.8c4.5,7.1,11.2,12.5,18.2,16.6C360.3,160.9,366.3,158.2,372.7,156L372.7,156z
	 M376.7,136.6c7.9-2.9,15.3-6.7,22.2-11.5c5.7,3.4,11.7,6.3,17.9,8.7c-0.2,7.2-1.5,14.4-4,21.2c-5.2,5.4-11.1,9.5-19.4,11.2
	c-8.3-1.1-14.8-4.9-20.6-10.3C375.2,149.4,376.9,143.6,376.7,136.6L376.7,136.6z M425,96.2c3.8,7.1,5.7,15.1,5.5,23.2
	c2.6,3.4,3.8,7.8,5.1,13c5.4-21.2-2.1-41.1-10.7-49.2C426.1,87.4,426.1,91.9,425,96.2L425,96.2z M395.3,100.4
	c3.9-3.5,7.4-7.4,10.7-11.5c8,1.2,13.1,2.7,19.1,7.3c3.6,6.9,5.4,13.4,5.5,23.2c-3.2,5.4-7,10.9-13.7,14.5
	c-6.2-2.4-12.2-5.3-17.9-8.8C398.4,116.8,397.2,108.5,395.3,100.4L395.3,100.4z M364.4,60.8c4.6,1.5,9,3.4,13.2,5.7
	c6.5-0.1,12.8,1.4,18.6,3c4-0.8,8-0.9,12.1-0.3C396.2,60.8,379.8,57.6,364.4,60.8L364.4,60.8z M369.7,96.8
	c-3.5-5.2-6.4-10.8-8.6-16.6c4.3-6.5,9.7-11.6,16.7-13.6c6.8,0,12.4,1.5,18.3,3c4.1,5,6.7,11.6,9.7,19.4c-3.2,4.1-6.8,8-10.7,11.5
	C386.9,98.1,378.3,96.9,369.7,96.8L369.7,96.8z M358.4,119.8c2-9.2,7-16.9,11.4-23c-3.5-5.2-6.4-10.8-8.6-16.6
	c-7.2-0.3-14.3,0.8-21.1,3c-4.6,7-8.2,14.5-10.9,22.4c1.8,6.8,5.5,12.9,10.6,17.7C346,122.2,352.2,120.8,358.4,119.8z"/>
<path class="st14" d="M393.4,166.2c7.5-1.6,14.2-5.6,19.4-11.2c3.4,0,7.1,0.2,10.3-1.2c-9.4,10.1-22.1,17-38.4,19.4
	C388,171.4,391,169.1,393.4,166.2L393.4,166.2z M334.4,145.1c4.8,7.5,11.6,12.7,18.1,16.6c0.7,2.7,1.8,5.4,3.1,7.9
	c-13-4.7-26.9-21.3-31.6-31.8C326.9,141,330.5,143.5,334.4,145.1L334.4,145.1z"/>
<path class="st12" d="M324,137.8c2.9,3.1,6.5,5.6,10.5,7.2c0.2-8.1,2.7-15.1,5.3-21.8c-5.1-4.8-8.8-10.9-10.7-17.7
	c-3.3,3.8-6.4,7.8-9.3,12C318.4,124.6,319.9,131.9,324,137.8z M416.7,133.8c6.2-3.3,9.9-8.2,13.7-14.5c2.7,3.4,4,8.7,5.1,13
	c-1.5,8.4-5.9,16.1-12.5,21.5c-2.9,1.3-6.4,1.2-10.3,1.2C415.2,148.2,416.6,141.1,416.7,133.8L416.7,133.8z M396.1,69.6
	c4.1,5,7,12.1,9.7,19.4c6.7,1.2,12.4,2,19,7.3c1.1-4.3,1.1-8.7,0-13c-4.4-7-10-11.7-16.8-13.9C404.1,68.7,400.1,68.9,396.1,69.6
	L396.1,69.6z M340.1,83.1c6.8-2.2,14-3.2,21.1-3c4.6-7.1,10.7-12,16.5-13.6c-4.2-2.3-8.7-4.3-13.3-5.8c-9.1,0.8-17.7,4.7-24.2,11.2
	C339.6,75.7,339.6,79.4,340.1,83.1L340.1,83.1z M358.4,119.8c2.2-9.1,6.5-16.2,11.4-23c8.6,0.1,17.2,1.3,25.4,3.6
	c1.9,8.1,3.2,16.4,3.7,24.7c-6.9,4.8-14.3,8.6-22.2,11.5C370.1,131.8,363.1,126.4,358.4,119.8L358.4,119.8z"/>
<path class="st15" d="M372.8,156c6.5,6.1,13.9,9.5,20.6,10.3c-2.4,2.8-5.3,5.2-8.6,6.9c-9.9,1.8-20.1,0.5-29.2-3.6
	c-1.3-2.5-2.3-5.1-3-7.9C359.4,161.1,366.5,158.1,372.8,156L372.8,156z"/>
<path class="st4" d="M324,137.8c2.9,3.1,6.5,5.6,10.5,7.2c-8.3-10.1-10.1-4.5-14.6-27.5C318.4,124.6,319.9,131.9,324,137.8z"/>
<path class="st16" d="M297.1,111.1c3-8.8,7.1-17.1,12.1-24.9c-0.4-4.1-0.3-8.3,0.2-12.4c-15.5,14.1-21.8,30.8-22.7,50.6
	C290,119.6,293.5,115.5,297.1,111.1L297.1,111.1z M345.6,167.2c2.9-7.1,4.7-14.9,4.5-21.4c-6.4-4.7-14.6-10.9-20.4-18.8
	c-7,1.2-14.1,2.7-20.7,3.9c-3.1,7.8-5.8,15.9-6,24.2c5,7.9,12.4,13.9,20.2,18.5C331.7,172.7,338.4,169.7,345.6,167.2L345.6,167.2z
	 M350,145.6c8.7-3.2,17-7.5,24.7-12.7c6.3,3.8,13,7,19.8,9.7c-0.2,8-1.7,16-4.4,23.5c-5.8,6-12.3,10.5-21.6,12.5
	c-9.2-1.2-16.4-5.5-22.9-11.4C348.3,159.8,350.2,153.5,350,145.6L350,145.6z M403.7,100.7c4.2,7.9,6.3,16.8,6.1,25.8
	c2.9,3.7,4.2,8.7,5.7,14.4c5.9-23.5-2.3-45.6-11.9-54.7C404.8,91,404.8,96,403.7,100.7L403.7,100.7z M370.6,105.4
	c4.3-3.9,8.3-8.2,11.9-12.8c8.9,1.3,14.5,3,21.2,8.1c4,7.6,6,14.9,6.1,25.8c-3.6,6.1-7.8,12.1-15.2,16.1c-6.9-2.6-13.5-5.9-19.8-9.7
	C374.1,123.6,372.7,114.5,370.6,105.4L370.6,105.4z M336.3,61.3c5.1,1.6,10,3.8,14.7,6.4c7.2-0.1,14.2,1.6,20.6,3.4
	c4.4-0.9,8.9-1,13.4-0.4C371.6,61.3,353.5,57.8,336.3,61.3L336.3,61.3z M342.3,101.3c-3.6-5.6-7.7-12.7-9.5-18.4
	c4.8-7.2,10.8-12.8,18.5-15.1c7.5,0,13.8,1.6,20.3,3.4c4.5,5.5,7.5,12.8,10.8,21.5c-3.6,4.6-7.5,8.9-11.9,12.8
	C361.3,102.8,351.8,101.4,342.3,101.3L342.3,101.3z M329.6,126.9c2.2-10.2,7.8-18.7,12.6-25.6c-3.9-5.7-7.1-11.9-9.5-18.4
	c-8-0.3-15.9,0.8-23.4,3.3c-5.1,7.8-9.2,16.2-12.2,25c2,7.5,6.2,14.4,11.9,19.7C315.8,129.6,322.7,128.2,329.6,126.9L329.6,126.9z"
	/>
<path class="st17" d="M368.5,178.5c8.3-1.8,15.8-6.2,21.6-12.5c3.7,0,7.9,0.2,11.4-1.3c-10.4,11.2-24.6,18.8-42.6,21.5
	C362.6,184.3,365.9,181.7,368.5,178.5z M303,155c5.3,8.4,12.9,14.1,20.1,18.5c0.8,3,2,6,3.4,8.8c-14.5-5.2-29.9-23.6-35.1-35.3
	C294.6,150.4,298.6,153.2,303,155L303,155z"/>
<path class="st18" d="M291.4,146.9c3.2,3.5,7.2,6.2,11.6,8c0.2-9,3-16.8,5.9-24.2c-5.7-5.4-9.8-12.2-11.9-19.7
	c-3.7,4.3-7.1,8.7-10.3,13.3C285.3,132.2,287,140.3,291.4,146.9L291.4,146.9z M394.5,142.5c6.9-3.6,11-9.1,15.2-16.1
	c3,3.7,4.4,9.6,5.7,14.4c-1.6,9.4-6.6,17.9-13.9,23.9c-3.2,1.5-7.1,1.3-11.4,1.3C392.9,158.5,394.4,150.5,394.5,142.5L394.5,142.5z
	 M371.6,71.2c4.5,5.5,7.8,13.5,10.8,21.5c7.5,1.3,13.8,2.2,21.2,8.1c1.3-4.7,1.3-9.7,0-14.4c-4.8-7.7-11.1-13-18.6-15.5
	C380.5,70.2,376,70.3,371.6,71.2L371.6,71.2z M309.3,86.2c7.6-2.4,15.5-3.6,23.4-3.3c5.1-7.9,11.9-13.3,18.3-15.1
	c-4.7-2.6-9.6-4.8-14.8-6.5c-10.1,0.9-19.7,5.3-26.9,12.4C308.8,77.9,308.8,82,309.3,86.2L309.3,86.2z M329.6,126.9
	c2.4-10.1,7.2-17.9,12.6-25.6c9.6,0.1,19.1,1.4,28.3,4.1c2.1,9,3.5,18.2,4.1,27.5c-7.6,5.3-15.9,9.6-24.7,12.7
	C342.7,140.3,334.9,134.2,329.6,126.9L329.6,126.9z"/>
<path class="st19" d="M345.7,167.1c7.2,6.7,15.4,10.5,22.9,11.4c-2.7,3.2-5.9,5.8-9.5,7.7c-11,2-22.3,0.6-32.5-4
	c-1.4-2.8-2.6-5.7-3.4-8.7C330.8,172.8,338.7,169.5,345.7,167.1z"/>
<path class="st9" d="M291.4,146.9c3.2,3.5,7.2,6.2,11.6,8c-9.2-11.2-11.3-5-16.3-30.5C285.3,132.2,287,140.3,291.4,146.9
	L291.4,146.9z"/>
<path class="st20" d="M267.8,132.9c3.3-9.8,7.9-19.1,13.5-27.7c-0.4-4.6-0.4-9.2,0.3-13.8c-17.2,15.6-24.2,34.2-25.2,56.3
	C260,142.4,263.9,137.8,267.8,132.9L267.8,132.9z M321.6,195.2c3.2-7.9,5.2-16.6,5-23.8c-7.1-5.2-16.3-12-22.7-20.9
	c-7.8,1.4-15.6,3-23,4.4c-3.5,8.7-6.4,17.7-6.6,26.9c5.5,8.8,13.8,15.4,22.4,20.6C306.2,201.3,313.6,198,321.6,195.2L321.6,195.2z
	 M326.6,171.3c9.7-3.5,18.9-8.2,27.4-14.1c7,4.2,14.4,7.8,22.1,10.8c-0.2,8.9-1.9,17.7-4.9,26.1c-6.5,6.6-13.7,11.7-24,13.9
	c-10.2-1.3-18.3-6.1-25.4-12.7C324.6,187.2,326.7,180.1,326.6,171.3L326.6,171.3z M386.2,121.4c4.3,7.9,6.8,17.3,6.8,28.6
	c3.2,4.1,4.6,9.7,6.3,16c6.6-26.1-2.6-50.7-13.2-60.7C387.5,110.6,387.5,116.1,386.2,121.4L386.2,121.4z M349.4,126.6
	c4.8-4.3,9.2-9.1,13.2-14.2c9.9,1.5,16.2,3.3,23.6,9c4.4,8.5,6.7,16.6,6.8,28.6c-4,6.7-8.6,13.4-17,17.9c-7.7-2.9-15-6.6-22.1-10.8
	C353.3,146.8,351.8,136.6,349.4,126.6z M311.4,77.7c5.7,1.8,11.1,4.2,16.3,7.1c8-0.2,15.8,1.7,22.9,3.7c4.9-1,9.9-1.1,14.9-0.4
	C350.6,77.7,330.4,73.8,311.4,77.7z M318,122c-4.1-6.2-8.5-14.2-10.6-20.5c5.3-8,12-14.3,20.6-16.8c8.4,0,15.3,1.8,22.6,3.7
	c5.1,6.1,8.3,14.3,12,23.9c-4,5.1-8.4,9.9-13.2,14.2C339.2,123.7,328.6,122.2,318,122z M303.9,150.5c2.4-11.3,8.6-20.8,14-28.5
	c-4.3-6.4-7.9-13.3-10.6-20.5c-8.8-0.3-17.7,0.9-26.1,3.6c-5.7,8.7-10.2,18-13.5,27.8c2.3,8.4,6.8,15.9,13.2,21.8
	C288.6,153.4,296.3,151.8,303.9,150.5L303.9,150.5z"/>
<path class="st20" d="M347.2,207.9c10.1-2,18.2-7.7,24-13.9c4.1,0,8.7,0.3,12.7-1.5c-11.5,12.5-27.3,20.9-47.3,23.9
	C340.6,214.3,344.2,211.4,347.2,207.9L347.2,207.9z M274.4,181.7c5.9,9.3,14.3,15.6,22.4,20.6c0.9,3.4,2.2,6.7,3.8,9.8
	c-16.1-5.8-33.2-26.3-39-39.2C265.1,176.7,269.5,179.8,274.4,181.7L274.4,181.7z"/>
<path class="st21" d="M261.5,172.8c3.6,3.9,8,6.9,12.9,8.9c0.2-10,3.4-18.6,6.6-26.9c-6.3-5.9-10.8-13.5-13.2-21.8
	c-4.1,4.7-7.9,9.7-11.5,14.8C254.7,156.6,256.5,165.6,261.5,172.8L261.5,172.8z M376.1,167.9c7.7-4.1,12.3-10.1,17-17.9
	c3.3,4.1,4.8,10.7,6.3,16c-2.1,10.6-7.3,20.1-15.5,26.5c-3.6,1.6-7.9,1.5-12.7,1.5C374.2,185.6,375.9,176.8,376.1,167.9z
	 M350.6,88.5c5.1,6.1,8.6,15,12,23.9c8.3,1.4,15.3,2.5,23.5,9c1.4-5.3,1.4-10.8,0-16c-5.4-8.6-12.4-14.4-20.7-17.2
	C360.5,87.4,355.5,87.6,350.6,88.5L350.6,88.5z M281.4,105.3c8.4-2.7,17.2-3.9,26.1-3.6c5.6-8.8,13.3-14.8,20.4-16.8
	c-5.2-2.9-10.7-5.3-16.4-7.1c-11.3,1.2-20.8,5.1-29.8,13.8C280.9,96.1,280.9,100.8,281.4,105.3L281.4,105.3z M304,150.5
	c2.7-11.2,8-19.9,14-28.5c10.6,0.1,21.2,1.6,31.4,4.5c2.4,9.3,3.7,20.2,4.6,30.5c-8.5,5.9-17.7,10.7-27.4,14.2
	C318.4,165.4,309.8,158.7,304,150.5L304,150.5z"/>
<path class="st22" d="M321.8,195.2c8,7.5,17.1,11.7,25.4,12.7c-3,3.5-6.5,6.4-10.6,8.6c-12.2,2.2-24.8,0.7-36.1-4.5
	c-1.6-3.1-2.9-6.3-3.7-9.7C305.3,201.6,314,197.9,321.8,195.2L321.8,195.2z"/>
<path class="st13" d="M261.5,172.8c3.6,3.9,8,6.9,12.9,8.9c-10.2-12.4-12.5-5.6-18.1-33.9C254.7,156.5,256.5,165.5,261.5,172.8
	L261.5,172.8z"/>
<path class="st23" d="M234.9,157.7c3.7-11.4,9-21.2,15-30.8c-0.5-5.1-0.4-10.2,0.3-15.3c-19.1,17.4-26.9,38-28,62.5
	C226.2,168.1,230.5,163.1,234.9,157.7L234.9,157.7z M294.7,226.8c3.5-8.8,5.8-18.4,5.5-26.5c-7.9-5.7-18.1-13.4-25.2-23.2
	c-8.6,1.5-17.4,3.3-25.5,4.8c-3.9,9.7-7.1,19.6-7.3,29.9c6.2,9.8,15.3,17.2,24.9,22.8C277.6,233.6,285.8,229.9,294.7,226.8
	L294.7,226.8z M300.2,200.2c10.8-3.9,21-9.2,30.5-15.8c7.8,4.7,16,8.7,24.5,12c-0.2,9.9-2.1,19.8-5.5,29.1
	c-7.2,7.4-15.2,13-26.7,15.4c-11.3-1.5-20.3-6.7-28.3-14.1C298,217.9,300.4,210,300.2,200.2L300.2,200.2z M366.4,144.8
	c4.8,8.8,7.5,19.2,7.6,31.8c3.6,4.6,5.2,10.7,7,17.8c7.3-29-2.9-56.4-14.6-67.5C367.8,132.8,367.8,138.9,366.4,144.8L366.4,144.8z
	 M325.5,150.6c5.3-4.8,10.2-10.1,14.6-15.8c11,1.6,18,3.6,26.2,10c4.9,9.4,7.4,18.4,7.6,31.8c-4.4,7.4-9.6,14.9-18.8,19.8
	c-8.5-3.3-16.7-7.3-24.5-12C329.7,172.8,328.2,161,325.5,150.6L325.5,150.6z M283.2,96.3c6.3,2,12.3,4.7,18.1,7.9
	c8.9-0.2,17.5,1.9,25.4,4.2c5.4-1.1,11-1.2,16.5-0.5C326.8,96.3,304.4,91.9,283.2,96.3L283.2,96.3z M290.6,145.6
	c-4.5-6.9-9.5-15.8-11.8-22.8c5.9-8.9,13.3-15.9,22.9-18.7c9.3,0,17.1,2,25.1,4.2c5.6,6.8,9.2,15.9,13.3,26.5
	c-4.4,5.7-9.3,10.9-14.6,15.8C314.2,147.4,302.4,145.7,290.6,145.6L290.6,145.6z M275,177.2c2.8-12.6,9.6-23.1,15.6-31.6
	c-4.4-6.9-8.9-14.3-11.8-22.8c-9.8-0.4-19.6,1-28.9,4.1c-6.3,9.6-11.3,19.9-15,30.8c2.8,9.8,8.1,18.5,14.6,24.3
	C258,180.4,266.5,178.7,275,177.2L275,177.2z"/>
<path class="st23" d="M323.1,240.9c11.2-2.2,20.2-8.6,26.7-15.4c4.6-0.1,9.7,0.3,14.1-1.6c-12.8,13.9-30.3,23.2-52.6,26.6
	C315.8,248.1,319.8,244.8,323.1,240.9L323.1,240.9z M242.2,211.8c6.6,10.3,15.9,17.4,24.8,22.8c1,3.8,2.4,7.4,4.2,10.9
	c-17.9-6.5-36.9-29.2-43.3-43.6C231.9,206.2,236.7,209.6,242.2,211.8L242.2,211.8z"/>
<path class="st24" d="M227.9,201.9c4.5,5,9,7.4,14.4,9.9c0.2-11.1,3.8-20.7,7.3-29.9c-7-6.6-12-15-14.6-24.3
	c-4.5,5.3-8.8,10.8-12.7,16.5C220.1,183.5,222.8,195,227.9,201.9L227.9,201.9z M355.2,196.5c8.5-4.6,13.6-11.2,18.8-19.8
	c3.7,4.6,5.4,11.9,7,17.8c-2.3,11.8-8.1,22.3-17.2,29.5c-4,1.8-8.8,1.6-14.1,1.6C353.1,216.2,355,206.3,355.2,196.5L355.2,196.5z
	 M326.9,108.3c5.6,6.8,9.6,16.7,13.3,26.5c9.2,1.6,17,2.8,26.1,10c1.5-5.8,1.5-12,0-17.8c-6.1-9.6-13.7-16-23-19.1
	C337.8,107.1,332.3,107.2,326.9,108.3L326.9,108.3z M249.9,126.9c9.3-3,19.1-4.4,28.9-4.1c6.3-9.8,14.7-16.4,22.6-18.6
	c-5.8-3.2-11.9-5.9-18.2-7.9c-12.5,1.4-23.1,5.7-33.1,15.3C249.5,116.7,249.4,121.8,249.9,126.9z M275,177.2
	c3-12.5,8.9-22.2,15.6-31.6c11.8,0.1,23.6,1.8,35,5c2.7,10.3,4.1,22.4,5.1,33.9c-9.4,6.6-19.7,11.9-30.5,15.8
	C291.1,193.7,281.6,186.2,275,177.2L275,177.2z"/>
<path class="st25" d="M294.9,226.8c8.9,8.3,19,13,28.3,14.1c-3.3,3.9-7.3,7.1-11.8,9.5c-13.6,2.5-27.6,0.8-40.1-5
	c-1.8-3.4-3.2-7.1-4.1-10.8C276.5,233.9,286.2,229.8,294.9,226.8L294.9,226.8z"/>
<path class="st15" d="M227.9,201.9c4.5,5,9,7.4,14.4,9.9c-11.4-13.8-13.9-6.2-20.1-37.7C220.1,183.5,222.8,195,227.9,201.9
	L227.9,201.9z"/>
<path class="st26" d="M202.5,197.6c4.1-12.7,10-23.6,16.6-34.2c-0.5-5.6-0.4-11.3,0.3-17c-21.3,19.3-29.9,42.2-31.1,69.5
	C192.8,209.3,197.7,203.7,202.5,197.6L202.5,197.6z M269,274.5c3.9-9.8,6.4-20.4,6.2-29.4c-8.7-6.4-20.1-14.9-28-25.8
	c-9.6,1.7-19.3,3.7-28.4,5.4c-4.3,10.7-7.9,21.8-8.2,33.2c6.8,10.9,17,19.1,27.7,25.4C250,282,259.1,277.9,269,274.5L269,274.5z
	 M275,244.9c12-4.4,23.4-10.3,33.9-17.5c8.7,5.2,17.8,9.6,27.2,13.3c-0.2,11-2.3,21.9-6.1,32.2c-8,8.2-16.9,14.4-29.6,17.1
	c-12.6-1.6-22.6-7.5-31.4-15.7C272.7,264.5,275.3,255.7,275,244.9L275,244.9z M348.6,183.3c5.3,9.7,8.3,21.3,8.4,35.4
	c4,5.1,5.7,11.9,7.8,19.8c8.2-32.2-3.2-62.6-16.3-75C350.3,170,350.3,176.8,348.6,183.3L348.6,183.3z M303.4,189.8
	c5.9-5.4,11.3-11.2,16.3-17.5c12.2,1.8,20,4.1,29.1,11.1c5.5,10.5,8.2,20.4,8.4,35.4c-4.9,8.3-10.7,16.6-20.9,22.1
	c-9.5-3.6-18.6-8.1-27.2-13.3C308,214.5,306.3,201.4,303.4,189.8L303.4,189.8z M256.4,129.4c7,2.2,13.7,5.2,20.1,8.7
	c9.9-0.2,19.4,2.1,28.3,4.6c6.1-1.2,12.3-1.4,18.4-0.5C304.8,129.4,279.9,124.6,256.4,129.4L256.4,129.4z M264.5,184.2
	c-5-7.7-10.5-17.5-13.1-25.3c6.6-9.9,14.8-17.6,25.4-20.7c10.3-0.1,18.9,2.3,27.9,4.6c6.2,7.6,10.2,17.6,14.8,29.5
	c-4.9,6.3-10.3,12.1-16.3,17.5C290.7,186.2,277.7,184.4,264.5,184.2L264.5,184.2z M247.2,219.4c3.1-14,10.7-25.7,17.3-35.1
	c-4.9-7.7-9.8-15.9-13.1-25.3c-10.9-0.4-21.8,1.1-32.2,4.6c-7,10.7-12.6,22.1-16.7,34.2c3.1,10.9,9,20.6,16.3,27
	C228.3,223,237.7,221,247.2,219.4L247.2,219.4z"/>
<path class="st27" d="M300.5,290.1c12.5-2.4,22.4-9.6,29.6-17.1c5.1-0.1,10.8,0.3,15.8-1.8c-14.3,15.4-33.7,25.8-58.5,29.6
	C292.4,298.1,296.9,294.5,300.5,290.1L300.5,290.1z M210.7,257.8c7.3,11.5,17.6,19.3,27.6,25.4c1.1,4.2,2.7,8.3,4.7,12.1
	c-19.9-7.2-41-32.4-48.2-48.5C199.2,251.6,204.6,255.4,210.7,257.8L210.7,257.8z"/>
<path class="st28" d="M194.8,246.8c5,5.5,10,8.3,16,11c0.2-12.4,4.2-23,8.1-33.2c-7.8-7.4-13.4-16.7-16.3-27
	c-4.8,5.9-9.6,11.4-14.1,18.3C186.1,226.4,189.1,239.2,194.8,246.8L194.8,246.8z M336.2,240.8c9.5-5.1,15.1-12.4,20.9-22.1
	c4.1,5.1,6.1,13.2,7.8,19.7c-2.6,13.1-9,24.7-19.1,32.7c-4.4,2-9.8,1.8-15.6,1.8C333.9,262.7,335.9,251.8,336.2,240.8L336.2,240.8z
	 M304.7,142.8c6.2,7.6,10.7,18.6,14.8,29.5c10.2,1.7,18.9,3.1,29.1,11.1c1.7-6.5,1.7-13.3,0-19.8c-6.7-10.6-15.3-17.8-25.5-21.2
	C317,141.5,310.8,141.6,304.7,142.8L304.7,142.8z M219.2,163.5c10.4-3.4,21.3-4.9,32.2-4.6c7-10.9,16.4-18.2,25.2-20.7
	c-6.5-3.6-13.2-6.5-20.2-8.8c-13.9,1.6-25.7,6.3-36.8,17C218.7,152.1,218.6,157.8,219.2,163.5L219.2,163.5z M247.1,219.4
	c3.4-13.9,9.8-24.6,17.3-35.1c13.1,0.1,26.2,2,38.8,5.6c3,11.5,4.6,24.9,5.7,37.7c-10.5,7.3-21.9,13.2-33.9,17.5
	C264.9,237.7,254.2,229.4,247.1,219.4L247.1,219.4z"/>
<path class="st29" d="M269.2,274.5c9.9,9.2,21.1,14.4,31.4,15.6c-3.6,4.3-8.1,7.9-13.1,10.6c-15.1,2.8-30.6,0.8-44.6-5.5
	c-2-3.8-3.5-7.8-4.6-12C248.7,282.3,259.6,277.8,269.2,274.5L269.2,274.5z"/>
<path class="st19" d="M194.8,246.8c5,5.5,10,8.3,16,11c-12.7-15.4-15.4-6.9-22.3-41.9C186.1,226.4,189.1,239.2,194.8,246.8
	L194.8,246.8z"/>
<path class="st30" d="M183.8,253.7c4.6-14.1,11.1-26.2,18.5-38c-0.6-6.3-0.5-12.6,0.4-18.9c-23.6,21.5-33.2,46.9-34.5,77.2
	C173,266.6,178.4,260.3,183.8,253.7L183.8,253.7z M257.6,339c4.4-10.8,7.1-22.7,6.8-32.7c-9.7-7.1-22.3-16.5-31.1-28.7
	c-10.7,1.9-21.5,4.1-31.5,6c-4.8,11.9-8.8,24.2-9.1,36.9c7.6,12.1,18.9,21.2,30.7,28.2C236.5,347.4,246.7,342.8,257.6,339L257.6,339
	z M264.4,306.2c13.3-4.8,26-11.4,37.7-19.4c9.7,5.8,19.8,10.7,30.3,14.8c-0.3,12.2-2.6,24.3-6.8,35.8c-8.9,9.1-18.8,16-32.9,19
	c-14-1.8-25.1-8.3-34.9-17.4C261.8,328,264.7,318.2,264.4,306.2L264.4,306.2z M346.2,237.8c5.9,10.8,9.3,23.7,9.3,39.3
	c4.4,5.7,6.4,13.3,8.7,22c9.1-35.8-3.5-69.6-18.1-83.3C348,223,348,230.5,346.2,237.8z M295.8,244.9c6.6-5.9,12.6-12.4,18.1-19.4
	c13.6,2,22.2,4.5,32.3,12.3c6.1,11.7,9.1,22.7,9.3,39.3c-5.5,9.2-11.8,18.4-23.2,24.5c-10.5-4-20.7-9-30.3-14.9
	C300.8,272.4,299,257.8,295.8,244.9L295.8,244.9z M243.6,177.8c7.7,2.5,15.2,5.7,22.4,9.7c10.9-0.2,21.6,2.4,31.4,5.1
	c6.7-1.3,13.6-1.5,20.4-0.5C297.4,177.8,269.7,172.5,243.6,177.8L243.6,177.8z M252.6,238.7c-5.6-8.5-11.7-19.4-14.5-28.1
	c7.3-11,16.4-19.6,28.2-23c11.5,0,21,2.5,31,5.1c6.9,8.4,11.4,19.6,16.5,32.8c-5.5,7-11.5,13.5-18.1,19.4
	C281.7,241,267.2,238.9,252.6,238.7L252.6,238.7z M233.4,277.7c3.4-15.5,11.8-28.5,19.2-39c-5.5-8.5-10.9-17.7-14.5-28.1
	c-12.1-0.4-24.2,1.3-35.7,5.1c-7.7,11.8-14,24.6-18.6,38c3.5,12.1,10,22.8,18.1,30C212.3,281.8,222.9,279.6,233.4,277.7z"/>
<path class="st31" d="M292.7,356.4c13.8-2.7,24.9-10.6,32.9-19c5.7-0.1,12,0.3,17.4-2c-15.8,17.2-37.5,28.7-64.9,32.8
	C283.6,365.2,288.6,361.2,292.7,356.4L292.7,356.4z M192.8,320.5c8.1,12.8,19.6,21.4,30.7,28.2c1.2,4.6,3,9.1,5.2,13.4
	c-22.1-8-45.5-36-53.5-53.8C180.1,313.6,186.1,317.8,192.8,320.5z"/>
<path class="st32" d="M175.2,308.3c5.5,6.1,11.1,9.2,17.7,12.2c0.3-13.8,4.6-25.6,9-36.9c-8.6-8.2-14.9-18.5-18.1-30
	c-5.3,6.6-10.7,12.6-15.8,20.3C165.5,285.5,168.8,299.8,175.2,308.3L175.2,308.3z M332.3,301.6c10.5-5.6,16.8-13.8,23.2-24.5
	c4.6,5.7,6.7,14.6,8.7,21.9c-2.8,14.5-10,27.5-21.3,36.4c-4.9,2.2-10.9,2-17.4,2C329.8,325.9,332,313.8,332.3,301.6L332.3,301.6z
	 M297.3,192.7c6.9,8.4,11.8,20.6,16.5,32.8c11.4,1.9,21,3.4,32.3,12.3c1.9-7.2,1.9-14.8,0-22c-7.4-11.8-17-19.8-28.4-23.6
	C310.9,191.2,304,191.4,297.3,192.7L297.3,192.7z M202.3,215.7c11.5-3.7,23.6-5.4,35.7-5.1c7.8-12.1,18.2-20.3,28-23
	c-7.2-4-14.7-7.3-22.5-9.8c-15.4,1.7-28.5,7-40.9,19C201.7,203.1,201.6,209.4,202.3,215.7L202.3,215.7z M233.3,277.8
	c3.7-15.4,10.9-27.4,19.2-39c14.6,0.1,29.1,2.2,43.1,6.2c3.3,12.8,5.1,27.7,6.3,41.9c-11.6,8.1-24.3,14.6-37.7,19.4
	C253.2,298.2,241.3,288.9,233.3,277.8L233.3,277.8z"/>
<path class="st33" d="M257.8,339c10.9,10.3,23.5,16,34.9,17.4c-4,4.8-9,8.8-14.5,11.7c-16.7,3.3-34.9,0.6-49.5-6.1
	c-2.2-4.2-3.9-8.7-5.1-13.3C235.1,347.8,247.2,342.8,257.8,339L257.8,339z"/>
<path class="st34" d="M175.2,308.3c5.5,6.1,11.1,9.2,17.7,12.2c-14-17.1-17.2-7.6-24.8-46.5C165.5,285.5,168.9,299.8,175.2,308.3
	L175.2,308.3z"/>
<path class="st35" d="M598.5,302.2c0,164.4-132.9,297.6-296.8,297.6S4.9,466.5,4.9,302.2S137.8,4.5,301.7,4.5
	S598.5,137.8,598.5,302.2z"/>
<line class="st36" x1="74.4" y1="439.4" x2="182.5" y2="439.4"/>
<line class="st36" x1="529" y1="439.4" x2="420.8" y2="439.4"/>
<path class="st37" d="M82.5,411.5h-9.8V382h-8.1v-8.3h26v8.3h-8.1V411.5z"/>
<path class="st37" d="M131.8,373.7v21.3c0,4.8-0.2,9.7-4,13.3c-3.2,3.1-8.1,4.2-12.5,4.2s-9.3-1.1-12.5-4.2c-3.8-3.6-4-8.5-4-13.3
	v-21.3h9.8v19.9c0,4.9,0.4,10.3,6.7,10.3s6.7-5.4,6.7-10.3v-19.9H131.8z"/>
<path class="st37" d="M180.6,390.3c-0.1,5.5-0.5,10.2-3.8,14.9c-3.7,5.2-9.3,7.4-15.6,7.4c-11.9,0-20.1-8.1-20.1-20
	c0-12.3,8.3-20.4,20.5-20.4c7.8,0,13.8,3.5,17,10.6l-9.3,3.9c-1.1-3.6-4.4-6.1-8.1-6.1c-6.4,0-9.8,6.2-9.8,11.9
	c0,5.8,3.5,11.8,9.9,11.8c4.3,0,7.5-2.2,7.9-6.6h-8v-7.7L180.6,390.3z"/>
<path class="st37" d="M227.7,390.3c-0.1,5.5-0.5,10.2-3.9,14.9c-3.7,5.2-9.2,7.4-15.5,7.4c-11.9,0-20.1-8.1-20.1-20
	c0-12.3,8.3-20.4,20.5-20.4c7.8,0,13.8,3.5,17,10.6l-9.3,3.9c-1.1-3.6-4.4-6.1-8.1-6.1c-6.5,0-9.8,6.2-9.8,11.9
	c0,5.8,3.5,11.8,9.9,11.8c4.3,0,7.5-2.2,7.9-6.6h-8v-7.7L227.7,390.3z"/>
<path class="st37" d="M247,382v6.3h11.1v8.3H247v6.5h11.6v8.3h-21.4v-37.8h21.4v8.3L247,382z"/>
<path class="st37" d="M279.5,381.2h0.9c3.2,0,6.8,0.6,6.8,4.7c0,4.1-3.6,4.7-6.8,4.7h-0.9V381.2z M289.2,396c5.4-1,8.3-5.5,8.3-10.7
	c0-8.1-5.6-11.6-13.1-11.6h-14.6v37.8h9.8v-14.5h0.1l9.2,14.5h12.2L289.2,396z"/>
<path class="st37" d="M329.2,397.4H321l4.1-12h0.1L329.2,397.4z M331.8,404.9l2.4,6.6h10.4l-14.2-37.8h-10.7l-14.5,37.8h10.4
	l2.6-6.6H331.8z"/>
<path class="st37" d="M352.8,373.7h9.8l18,23.1h0.1v-23.1h9.8v37.8h-9.8l-17.9-23.2h-0.1v23.2h-9.8V373.7z"/>
<path class="st37" d="M420.8,381.9c5.9,0,10.7,4.8,10.7,10c0,6.5-4.8,11.3-10.7,11.3c-5.8,0-10.7-4.8-10.7-11.3
	C410.1,386.7,414.9,381.9,420.8,381.9z M420.8,372.4c-10.8,0-20.8,8-20.8,19.4c0,12.2,8.7,20.9,20.8,20.9c12.1,0,20.9-8.6,20.9-20.9
	C441.6,380.4,431.6,372.4,420.8,372.4L420.8,372.4z"/>
<path class="st37" d="M451.2,373.7h9.8l17.9,23.1h0.1v-23.1h9.7v37.8h-9.7l-18-23.2H461v23.2h-9.8V373.7z"/>
<path class="st37" d="M537.8,390.3c-0.1,5.5-0.5,10.2-3.9,14.9c-3.6,5.2-9.2,7.4-15.5,7.4c-11.9,0-20.1-8.1-20.1-20
	c0-12.3,8.3-20.4,20.5-20.4c7.7,0,13.7,3.5,17,10.6l-9.3,3.9c-1.1-3.6-4.4-6.1-8.2-6.1c-6.4,0-9.8,6.2-9.8,11.9
	c0,5.8,3.5,11.8,9.9,11.8c4.3,0,7.5-2.2,7.9-6.6h-8v-7.7L537.8,390.3z"/>
<path class="st37" d="M229.6,421.9v21.3c0,4.8-0.2,9.7-4,13.3c-3.2,3.1-8.1,4.2-12.5,4.2c-4.4,0-9.3-1.1-12.5-4.2
	c-3.8-3.6-4-8.5-4-13.3v-21.3h9.8v19.9c0,4.9,0.3,10.3,6.6,10.3c6.3,0,6.7-5.4,6.7-10.3v-19.9H229.6z"/>
<path class="st37" d="M240.8,421.9h9.8l17.9,23.1h0.1v-23.1h9.8v37.8h-9.8l-17.9-23.2h-0.1v23.2h-9.8V421.9z"/>
<path class="st37" d="M299.7,459.7h-9.8v-37.8h9.8V459.7z"/>
<path class="st37" d="M326.1,459.7h-9.8v-29.5h-8.1v-8.3h26v8.3h-8.1L326.1,459.7z"/>
<path class="st37" d="M352.5,430.2v6.3h11.1v8.3h-11.1v6.5h11.7v8.3h-21.5v-37.8h21.5v8.3L352.5,430.2z"/>
<path class="st37" d="M385,430.2h2.3c6.3,0,10.7,3.8,10.7,10.6c0,7.4-5,10.6-10.8,10.6H385V430.2z M375.2,459.7h13.9
	c10.4,0,18.9-8.5,18.9-18.9c0-10.4-8.5-18.9-18.9-18.9l0,0h-13.9V459.7z"/>
<path class="st38" d="M309,495.7c-0.2,0.9-0.6,1.8-1.3,2.4"/>
<polygon class="st1" points="404.9,325.5 427.4,325.9 427.4,183.7 404.9,197.1 "/>
<polygon class="st1" points="369.5,325.1 391.9,325.4 391.9,204.8 369.5,218.2 "/>
<polygon class="st1" points="440.4,326 462.8,326.3 462.8,162.5 440.4,175.9 "/>
<polygon class="st1" points="475.8,326.5 498.2,326.8 498.2,141.3 475.8,154.7 "/>
<path class="st1" d="M511.2,327.1l22.4,0.3V142.8c-3.7-5.4-7.5-10.6-11.5-15.8l-10.9,6.5L511.2,327.1z"/>
<path class="st1" d="M546.7,327.6l22.4,0.3V214.5c-5.8-17.7-13.3-34.8-22.4-51V327.6z"/>
<path class="st37" d="M172.8,527.3c-1.9,2-8.5,8-11,8c-0.7,0-1.3-0.6-1.3-1.3c0,0,0,0,0-0.1c0-1.5,2.3-4.4,3.3-5.5
	c1.5-1.7,3.5-2.9,5.7-3.4l6.4-6.8l-8.1,0.7c-0.4,0-2.7,0-2.8-0.7c-0.4-1.4,0.2-3,1.4-3.8c2.3-1.2,4.8-2.1,7.4-2.6l8.3-1.6
	c1.8-2.4,6.2-9.9,6.2-12.6c0-1.1-0.8-1-1.7-1c-0.1,0-0.4-0.2-4.5,0.4c-6.3,1-12.4,2.7-18.3,5.1l0.1,0.1l2.8-0.1c0.4,0,1,0,1,0.5
	s-1.2,0.8-1.6,0.9l-6.3,2c-3.7,1.2-4.2,0.5-4.2-0.5c0-1.6,3.1-7,4.2-8.3c2.1-2.7,5.1-3.3,8.2-4c14.3-3.3,18.4-3.4,21.6-3.4
	c2,0,5.6,0.2,5.6,2.9c0,4-6.1,14.7-8.6,18.3l3.6,0.6l-2.2,3.5c-0.4,0.7-0.8,1.4-1.5,1.7c-1.5,0.5-3,0.8-4.5,1L172.8,527.3z"/>
<path class="st37" d="M213.1,518.6c-2,2.9-5.3,4.6-8.8,4.4c-2.3,2.3-5,4.1-8.4,4.1c-2.8,0-5.5-2.8-5.7-7.8c-0.1-4.1,1.9-6.8,5-9.2
	c2.9-2.4,6.5-3.8,10.2-4c1.2-0.1,3,0.5,3,2c0,0.8-0.7,1.1-1.2,1.5c1.6,0.4,2,1.6,2,3.2c0,2.4-1.1,4.3-2.1,6.4
	c2.4,0.4,3.9-1.6,5.6-2.9L213.1,518.6z M196.5,516c-1.3,1.4-2.1,3.1-2.2,5c0,1.6,1,2.1,2.4,2.1c1.8,0,2.9-1,4.2-2.2
	c-0.4-0.8-0.6-1.6-0.7-2.5c0-2.8,2.6-6.3,2.4-6.4C200.4,513.2,198.3,514.5,196.5,516z"/>
<path class="st37" d="M234.7,518.6c-2,2.9-5.3,4.6-8.8,4.4c-2.3,2.3-5,4.1-8.4,4.1c-2.8,0-5.5-2.8-5.7-7.8c-0.1-4.1,1.9-6.8,5-9.2
	c2.9-2.4,6.5-3.8,10.2-4c1.2-0.1,3,0.5,3,2c0,0.8-0.7,1.1-1.2,1.5c1.6,0.4,2,1.6,2,3.2c0,2.4-1.1,4.3-2.1,6.4
	c2.4,0.4,3.9-1.6,5.6-2.9L234.7,518.6z M218,516c-1.3,1.4-2.1,3.1-2.2,5c0,1.6,1,2.1,2.4,2.1c1.8,0,2.9-1,4.2-2.2
	c-0.4-0.8-0.6-1.6-0.7-2.5c0-2.8,2.6-6.3,2.4-6.4C222,513.2,219.9,514.5,218,516z"/>
<path class="st37" d="M252.9,504c-2.6,5.2-3,7.2-9,6.8c-1.9,2.4-5,6.9-5,10.1c0,1.2,0.4,1.9,1.6,1.9c1.7,0,3.7-1.6,9.4-5.7l0.3,2.4
	c-3.2,2.9-9.1,8.8-13.7,8.8c-1.8,0.1-3.4-1.3-3.5-3.2c0-0.2,0-0.3,0-0.5c0.1-1.9,0.6-3.7,1.4-5.5l-0.1-0.1l-2.8,2.2l-0.6-2.1
	c3.3-2.3,6.1-5.3,8.3-8.7c-1.7-0.2-3.5-0.1-5.2,0.2l0.6-1c2.9-4.8,3.4-5.7,9.2-5.9c1.6-2.2,2.8-4.8,6-4.8c0.7,0,1.7,0.2,1.7,1
	s-1.6,2.8-2.1,3.5L252.9,504z"/>
<path class="st37" d="M254.3,516.5c-1,3.4,0.3,6.3,2.4,6.1c1.7-0.3,2.7-1.7,3.6-2.8c-0.5-0.6-0.7-1.4-0.8-2.1c0-3.2,4.4-8.5,7.6-8.5
	c1.3,0,1.6,1.4,1.6,2.4c0,2.3-1.7,4.8-2.6,6.8c2.2,0.4,4-0.8,5.8-2l0.5,1.8c-2.3,2.4-5.4,3.6-8.7,3.5c-2.3,2.4-6.2,5.8-9.8,5.8
	c-3.6,0-4-5.3-4-7.9c0-6.9,3.2-12.7,7.5-17.8c4.3-5.1,13-11.9,15.3-11.9c1.1,0,1.6,1,1.6,2c0,5-8.1,13.1-11.6,16.5L254.3,516.5z
	 M256.2,510.7l0.1,0.1c11.4-11.3,12.6-14.5,13.5-16.4l-0.1-0.1C264.2,498.8,259.6,504.4,256.2,510.7z"/>
<path class="st37" d="M280.6,523.1c-1,0.8-4.5,3.6-5.8,3.6c-1.5,0-4.7-3.6-4.8-6.4c-0.2-6.8,14-13.8,20.3-14c1.7-0.1,3.2,1,3.6,2.6
	c0,0.7-1.4,1.2-1.9,1.4c1,0.3,1.6,1.2,1.6,2.2c0,1.7-4.7,5.6-4.7,8.1c0,0.9,0.8,1.3,1.7,1.3c2.3,0,5.4-2.8,7.7-4.4l0.4,2
	c-2.4,2.7-9.7,8.5-12.3,8.5c-1.4,0-2.6-1.1-2.6-2.5c0-0.1,0-0.3,0-0.4c0-1.7,1.3-4.6,2-6.1l-0.1-0.1L280.6,523.1z M274.1,521.7
	c0,0.3,0.3,1.2,1.1,1.1c1.1-0.2,2.8,0,13.6-10.9l-0.1-0.1C275.6,515.7,274.1,519,274.1,521.7L274.1,521.7z"/>
<path class="st37" d="M315.6,518.7c-3,3.1-8.1,8.6-12.8,8.6c-4,0-4.8-3.9-4.8-7.1c0.2-5.9,2.3-11.6,6-16.2c4.8-5.9,10-11,11.7-11
	c0.9,0,1.1,1.3,1.1,2c-0.4,5.2-1.8,10-13.6,21.4c-0.5,1.2-0.7,2.5-0.4,3.8c0.5,1.2,1.2,2.3,2.7,2.3c3,0,7.2-3.5,9.4-5.5L315.6,518.7
	z M304.4,511.4c3.9-3.6,7.3-8.8,8.2-11.9c-2.7,1.3-5.8,6.2-8.3,11.8L304.4,511.4z"/>
<path class="st37" d="M332,518.7c-3,3.1-8.1,8.6-12.8,8.6c-4,0-4.8-3.9-4.8-7.1c0.2-5.9,2.3-11.6,6-16.2c4.8-5.9,10-11,11.7-11
	c0.9,0,1.2,1.3,1.1,2c-0.4,5.2-1.8,10-13.6,21.4c-0.5,1.2-0.7,2.5-0.4,3.8c0.5,1.2,1.2,2.3,2.7,2.3c3,0,7.2-3.5,9.4-5.5L332,518.7z
	 M320.7,511.4c3.9-3.6,7.3-8.8,8.2-11.9c-2.7,1.3-5.8,6.2-8.3,11.8L320.7,511.4z"/>
<path class="st37" d="M372.6,505.9c0.4-0.4,2.2-2.1,2.8-2.1c0.6,0,0.8,0.4,0.5,1.2l0.1,0.1c5.3-4.6,8.7-9.5,8.7-11.3
	c0-0.9-0.6-1.3-1.5-1.1c-0.9,0.2-7.2,0.5-19.4,14.8c-3.8,4.5-6.6,10.5-6.6,14.7c0,3.9,1.9,6.2,5.8,6.2c6.9,0,18.9-8.9,24.1-13.5
	c0.2,2.8-0.7,3.6-2.8,5.5c-10.6,10.3-19.7,13.5-24.8,13.5c-6.1,0-10.4-3.8-10.4-10c0-8,6.7-16.6,12.3-21.9
	c4.6-4.4,16.1-13.1,22.6-13.1c3.3,0,5.4,1.7,5.6,5.2c0.4,7.4-13.7,21.3-20.6,22.4c-1.4,0.2-2.8-0.7-3-2.1c0-0.2,0-0.3,0-0.5
	c0-1.6,1.5-3.3,2.6-4.3L372.6,505.9z"/>
<path class="st37" d="M405.9,518.7c-3,3.1-8.1,8.6-12.8,8.6c-4,0-4.8-3.9-4.8-7.1c0.2-5.9,2.3-11.6,6.1-16.2c4.8-5.9,10-11,11.7-11
	c0.9,0,1.1,1.3,1.1,2c-0.4,5.2-1.8,10-13.6,21.4c-0.5,1.2-0.7,2.5-0.4,3.8c0.5,1.2,1.2,2.3,2.7,2.3c3,0,7.2-3.5,9.4-5.5L405.9,518.7
	z M394.6,511.4c3.9-3.6,7.3-8.8,8.2-11.9c-2.7,1.3-5.8,6.2-8.3,11.8L394.6,511.4z"/>
<path class="st37" d="M420.4,512.3c1.2-1,6.5-6.2,7.9-6.2c0.4,0,1,0.2,1.2,3c0.1,1.3-1.4,2.6-2.2,3.3c-1.7,1.6-5.6,5.9-5.6,8.3
	c0,0.9,0.5,1.2,1.4,1.2c2.1,0,6.8-3.8,8.4-5.1l0.3,2.3c-2.8,2.7-8.6,8.9-12.6,8.9c-1.8,0-3.3-1.6-3.2-3.4c0-0.1,0-0.2,0-0.2
	c0.1-1.6,0.5-3.1,1.2-4.6l-0.1-0.1c-2.1,1.9-5.8,6.8-8.8,6.8c-2.7,0-4.1-3.1-4.1-5.4c0-5.3,4.1-10.7,7.6-13c0.7-0.4,1.6-0.7,2.4-0.6
	c0.8,0,3.5-0.5,3.3,1.1c-0.5,1.1-1.2,2.1-2.2,2.9c-1.2,1.5-2.6,2.8-4.1,3.9c-1.7,1.2-3,2.4-3,4.7c0,0.3,0,0.8,0.4,0.8
	c1,0,4-1.6,6.5-3.9L420.4,512.3z"/>
<path class="st37" d="M435.3,516.5c-1,3.4,0.3,6.3,2.4,6.1c1.7-0.3,2.7-1.7,3.6-2.8c-0.5-0.6-0.7-1.4-0.8-2.1c0-3.2,4.4-8.5,7.6-8.5
	c1.3,0,1.6,1.4,1.6,2.4c0,2.3-1.7,4.8-2.6,6.8c2.2,0.4,4-0.8,5.8-2l0.5,1.8c-2.3,2.4-5.4,3.6-8.7,3.5c-2.4,2.4-6.2,5.8-9.8,5.8
	s-4-5.3-4-7.9c0-6.9,3.2-12.7,7.5-17.8c4.3-5.1,13-11.9,15.3-11.9c1.1,0,1.6,1,1.6,2c0,5-8.1,13.1-11.6,16.5L435.3,516.5z
	 M437.2,510.7l0.1,0.1c11.4-11.3,12.6-14.5,13.5-16.4l-0.1-0.1C445.2,498.8,440.6,504.4,437.2,510.7z"/>
<path class="st37" d="M257.7,547.7c-1.9,0.6-3.6,1.8-4.1,1.9c-0.2,0-0.3-0.1-0.3-0.3c0,0,0,0,0,0c0-0.4,1.5-1.6,2-2.1
	c-6.9,0-10.9,2.8-10.7,3.8c0.1,0.5-0.1,1.3,9.3,1.1c0.3,0,2,0,2,0.6c-0.2,0.7-0.5,1.4-1.1,1.9c-0.9,0.4-1.8,0.7-2.8,0.8
	c-7.5,1.2-10.5,4.5-10.5,5.5c0,0.5,0.9,0.9,2.4,0.9c2.3,0.1,4.7-0.3,6.9-1c2.1-0.8,4-1.9,5.8-3.1c0.1,2.1,0,3.3-1.7,4.7
	c-3.1,2.3-6.9,3.5-10.7,3.3c-1.4,0-2.7-0.3-4-0.6c-1.3-0.6-2-1.9-2-3.3c0-2,2.6-5.7,11.1-7.8V554c-6.6-0.2-8-1.7-8-3.4
	c0-2.8,4.2-7.3,13.8-7.3c0.9,0,3.6-0.1,4.1,0.9l0.1,1.2C259.4,547.1,259.3,547.2,257.7,547.7z"/>
<path class="st37" d="M268.1,558.3l0.3,1.1c-1.8,1.8-4.9,4.4-7.3,4.3c-2.1,0-4-1.3-4.6-3.3c-0.2,0.2-0.4,0.3-0.6,0.4
	c-0.3,0-0.5-0.3-0.5-0.6c0-0.4,0.5-0.8,0.7-1l6.3-5.8c-0.1-1,0.7-1.8,1.6-1.9c0.9,0,1.1,0.3,1.1,1.1c0.3,1.1,0.4,2.2,0.6,3.4
	c0,2.4-1.9,4.2-3.8,5.3c1.9,0.3,3-0.5,4.4-1.6L268.1,558.3z M258.2,558.9c1.1,0.1,1.7,1,2.3,1.7c1.7-1.1,2.2-1.6,2.3-3.3
	c-0.1-0.6-0.2-1.4-0.4-2.4L258.2,558.9z"/>
<path class="st37" d="M278.5,551.2c-1.4,2.8-1.6,3.8-4.8,3.6c-1,1.3-2.6,3.6-2.6,5.4c0,0.6,0.2,1,0.9,1c0.9,0,2-0.9,5-3l0.1,1.3
	c-1.7,1.6-4.8,4.7-7.3,4.7c-1,0-1.8-0.7-1.8-1.7c0-0.1,0-0.2,0-0.3c0.1-1,0.3-2,0.8-2.9l-0.1-0.1l-1.5,1.2l-0.3-1.1
	c1.8-1.2,3.3-2.8,4.4-4.7c-0.9-0.1-1.9,0-2.8,0.1l0.3-0.5c1.6-2.6,1.8-3,4.9-3.1c0.9-1.2,1.5-2.6,3.2-2.6c0.4,0,0.9,0.1,0.9,0.5
	s-0.8,1.5-1.1,1.9L278.5,551.2z"/>
<path class="st37" d="M278.5,562.2c0-1.1,1.3-3.5,2.9-3.1c0.4,0.1,1.4,0.1,1.4,0.9c0,0-0.7,3.6-2.5,3.4
	C279.5,563.4,278.5,563.2,278.5,562.2z"/>
<path class="st37" d="M304.5,549c-0.3,0.1-0.5,0.2-0.8,0.3c-0.3,0-0.3-0.5-0.2-0.7c0-0.8,0.6-1.1,1.3-1.5c1-0.6,4.3-2.5,5.1-2.5
	c0.8,0,1.3,1.6,1.3,2c0,0.8,0,0.8-4.6,8.5c-1,1.7-3.4,5.8-3.4,7.8c0,0.4,0.1,0.7,0.1,1c0,0.2-0.1,0.4-0.3,0.4c0,0-0.1,0-0.1,0
	c-0.2,0-0.4-0.1-0.6-0.3c-1.1-0.6-2.4-0.8-2.4-2.3c0.3-2.1,1-4.1,2-6c1.6-2.7,3.4-5.3,5.3-7.7h-0.1L304.5,549z"/>
<path class="st37" d="M327,549.6c-0.3,0.2-0.6,0.4-0.9,0.4c-0.2,0-0.3-0.2-0.3-0.4c0-0.1-0.1-0.1,1.5-1.5v-0.1
	c-7,1.8-9.3,4.5-9.3,6.3c0,0.3,0.1,0.5,0.5,0.5c2.2,0,6.1-2.2,7.7-3.6c0.4-0.4,1.5-1.2,2.1-1.2c0.4,0,1.6,0.3,1.6,0.7
	s-0.7,1.2-1,1.6l-7.7,9c-1.7,2-2.7,2.6-3.9,2.7c-0.3,0.1-0.6-0.1-0.6-0.4c0,0,0-0.1,0-0.1c0.2-0.5,0.4-1,0.8-1.5
	c0.5-0.8,0.6-1.3,1.7-1.3l5.5-6.5l-0.1-0.1c-1.2,0.8-4.4,2.9-5.9,2.9c-2-0.6-3.5-2.3-3.6-4.4c0-3.6,6.9-8.2,11.9-8.1
	c1.1,0,2.8,2.3,2.8,2.9s-1.2,1.2-1.7,1.5L327,549.6z"/>
<path class="st37" d="M342.3,548.4c-6.8-0.2-7.4,0.6-8.6,1.2c-0.2,0.1-0.6,0.4-0.9,0.4c-0.3,0-0.8-0.3-0.8-0.6
	c0-0.6,1.7-2.8,2.2-3.3c0.9-0.9,2.8-1.6,9.9-1.6c0.6-0.1,1.2,0.1,1.6,0.5c0.4,0.7,0.6,1.5,0.7,2.3c0,0.6-1,1.4-1.5,1.7
	c-4,3.2-6.9,7.6-8.3,12.5c0.2-0.1,0.5-0.1,0.7-0.1c0.2,0,0.3,0.1,0.3,0.3c0,0,0,0,0,0c0,0.4-3,2.4-4.2,2.5c-1.2,0.1-1.5-0.8-1.5-1.8
	c0-2.3,2.7-5.8,4.1-7.6L342.3,548.4z"/>
<path class="st37" d="M353,552L353,552c1.2-0.7,2.5-1.1,3.8-1.2c2,0.1,3.6,1.8,3.5,3.8c0,0,0,0.1,0,0.1c0,4.7-6.2,9-8.2,9
	c-2.9-0.5-5-3-5.1-5.9c0-5.1,5.6-9.8,9.5-12.2c0.9-0.8,2.1-1.1,3.3-1c0.3,0,2.3-0.1,2.3,0.4c0,0.3-0.4,0.5-0.6,0.6
	c-1.6,0.8-3.2,1.8-4.6,3L353,552z M352,555.8c-1.2,1.1-1.7,1.5-1.7,3.1c0,0.5,0,2,0.7,1.8c2.1-0.4,6.2-3.2,6.3-6.7
	c0-0.6,0-1.1-0.8-1.1C355.2,553,352.9,555,352,555.8L352,555.8z"/>
</svg>
